<svg id="Layer_1" data-name="Layer 1" xmlns="http://www.w3.org/2000/svg" viewBox="0 0 73.33 80"><defs><style>.cls-1{fill:#5938d9;}</style></defs><title>Artboard 32 copy 2</title><g id="_01" data-name="01"><path class="cls-1" d="M23,61.5A10.5,10.5,0,1,1,12.5,51,10.49,10.49,0,0,1,23,61.5"/><path class="cls-1" d="M26.51,15.8l1.35-1.34c10.3-10.3,25.59-9.91,36.52,1,9.58,9.58,10.38,23.68,1.9,32.16A20.23,20.23,0,0,1,56.85,53c-3.4.87-5.54.95-12.59.71-8-.24-10.86.24-13.47,2.38L18.51,43.77c4-4.12,9.35-5.55,19.8-5.23,7,.08,10.46-.79,12.76-3.09,2.85-2.85,3-5.86.32-8.56C48,23.49,44.73,24,39.66,29Z"/></g></svg>