<svg id="Layer_1" data-name="Layer 1" xmlns="http://www.w3.org/2000/svg" viewBox="0 0 152 104"><defs></defs><title>Artboard 46</title><path class="cls-1" d="M.92,66.23V66c0-19.89,15.21-36.26,36.52-36.26,11.32,0,19,3.29,25,8.87a3.94,3.94,0,0,1,.22,5.58l-6.8,7.31a4,4,0,0,1-5.5.25,18.76,18.76,0,0,0-13.08-5c-9.88,0-16.9,8.71-16.9,19V66c0,10.65,6.89,19.23,17.68,19.23,5.41,0,9.44-1.91,13.35-5.09a4,4,0,0,1,5.24.32l6.24,6.31a3.93,3.93,0,0,1-.09,5.62c-6.17,5.88-13.62,9.86-25.65,9.86C16.26,102.22.92,86.11.92,66.23Z"/><path class="cls-1" d="M79,31H90.91a3.93,3.93,0,0,1,3.93,3.93V96.73a3.93,3.93,0,0,1-3.93,3.93H79a3.93,3.93,0,0,1-3.93-3.93V34.94A3.93,3.93,0,0,1,79,31Z"/><circle class="cls-1" cx="84.97" cy="11.67" r="10.9"/><path class="cls-1" d="M114.43,80.91V50.52a2.63,2.63,0,0,0-2.63-2.62H110A3.93,3.93,0,0,1,106.11,44v-9A3.93,3.93,0,0,1,110,31h1.76a2.62,2.62,0,0,0,2.63-2.62V17.14a3.93,3.93,0,0,1,3.93-3.93h11.89a3.93,3.93,0,0,1,3.93,3.93V28.39A2.62,2.62,0,0,0,136.8,31h9.82a3.93,3.93,0,0,1,3.93,3.93v9a3.93,3.93,0,0,1-3.93,3.93H136.8a2.62,2.62,0,0,0-2.62,2.62V77.66c0,4.55,1.95,6.76,6.37,6.76a20.47,20.47,0,0,0,6.36-1A2.62,2.62,0,0,1,150.29,86v9.5A3.93,3.93,0,0,1,148.12,99a29.8,29.8,0,0,1-13.42,2.85C122.61,101.83,114.43,97,114.43,80.91Z"/></svg>