<svg id="Layer_1" data-name="Layer 1" xmlns="http://www.w3.org/2000/svg" viewBox="0 0 80 80"><defs></defs><title>Artboard 31</title><path class="cls-1" d="M70,36.67A3.33,3.33,0,1,1,66.67,40,3.33,3.33,0,0,1,70,36.67Zm-50,30A3.33,3.33,0,1,1,16.67,70,3.33,3.33,0,0,1,20,66.67ZM70,30A10,10,0,1,0,80,40,10,10,0,0,0,70,30ZM20,60A10,10,0,1,0,30,70,10,10,0,0,0,20,60ZM35.29,3.4l1.38-.07A36.63,36.63,0,0,1,69.33,23.4a16.41,16.41,0,0,0-6.66,1.71A30,30,0,0,0,36.67,10,16.56,16.56,0,0,0,35.29,3.4Zm34,53.2A36.63,36.63,0,0,1,36.67,76.67l-1.38-.07A16.56,16.56,0,0,0,36.67,70a30,30,0,0,0,26-15.11A16.41,16.41,0,0,0,69.33,56.6Zm-63,3.95a36.67,36.67,0,0,1,0-41.1,16.78,16.78,0,0,0,5,4.68,29.73,29.73,0,0,0,0,31.74A16.66,16.66,0,0,0,6.3,60.55Z"/><path class="cls-1" d="M20,0A10,10,0,1,0,30,10,10,10,0,0,0,20,0Zm0,13.33A3.33,3.33,0,1,1,23.33,10,3.33,3.33,0,0,1,20,13.33Z"/></svg>