<svg xmlns="http://www.w3.org/2000/svg" viewBox="0 0 512 512"><path d="M481 410.582V255c0-57.897-47.103-105-105-105-57.967 0-105 47.174-105 105v156.331a138.17 138.17 0 00-15 23.234c-6.294-12.304-14.479-23.733-24.42-33.904-11.344-11.605-24.317-20.897-38.375-27.656C221.955 354.254 241 321.811 241 285v-30c0-57.897-47.103-105-105-105H15c-8.284 0-15 6.716-15 15 0 28.907 11.855 55.122 31 74.128V285c0 36.775 19.008 69.19 47.711 87.951C33.632 394.448 0 441.512 0 497c0 8.284 6.716 15 15 15h482c8.284 0 15-6.716 15-15 0-31.65-10.923-61.873-31-86.418zM31.527 180H136c36.219 0 66.524 25.809 73.493 60H106c-36.714 0-67.421-25.861-74.473-60zM61 285v-24.946C74.667 266.428 89.919 270 106 270h105v15c0 41.355-33.645 75-75 75s-75-33.645-75-75zM31.09 482c7.476-51.207 52.481-92 104.91-92 52.904 0 96.794 40.073 103.972 92H31.09zM376 180c36.219 0 66.522 25.808 73.491 60h-39.269c-32.991 0-63.761-15.366-83.56-41.415C339.86 187.028 357.12 180 376 180zm-75 75a74.534 74.534 0 017.065-31.732C333.533 252.791 370.634 270 410.222 270H451v15c0 41.355-33.645 75-75 75s-75-33.645-75-75v-30zm150 103.403v24.701a135.513 135.513 0 00-17.711-10.154A105.722 105.722 0 00451 358.403zm-150 0a105.708 105.708 0 0017.796 14.603A133.61 133.61 0 00301 383.32v-24.917zM272.028 482c7.177-51.927 51.068-92 103.972-92 52.429 0 97.434 40.793 104.91 92H272.028z"/><path d="M293.211 0C278.723 0 265.977 5.894 256 17.125 246.023 5.894 233.277 0 218.789 0c-29.277 0-52.211 24.332-52.211 55.394-.001 32.606 25.35 54.002 60.436 83.616 6.122 5.167 12.452 10.51 19.162 16.325 2.819 2.443 6.321 3.665 9.824 3.665s7.005-1.222 9.824-3.665c6.71-5.816 13.042-11.159 19.164-16.327 32.535-27.46 60.435-49.812 60.435-83.615C345.423 24.332 322.489 0 293.211 0zm-27.574 116.083c-3.147 2.657-6.35 5.36-9.638 8.155-3.287-2.795-6.489-5.497-9.636-8.153-33.624-28.38-49.787-42.815-49.787-60.691C196.577 42.775 204.207 30 218.789 30c16.107 0 22.335 19.851 22.767 21.296 1.744 6.573 7.641 11.153 14.445 11.153s12.701-4.579 14.445-11.153c.43-1.445 6.658-21.296 22.765-21.296 14.582 0 22.211 12.775 22.211 25.394 0 18.628-18.914 34.633-49.785 60.689z"/></svg>