<svg id="Layer_1" data-name="Layer 1" xmlns="http://www.w3.org/2000/svg" viewBox="0 0 84 84"><defs><style>.cls-1{fill:#5938d9;}</style></defs><title>Artboard 30</title><path class="cls-1" d="M22.93,12C33.72,12,39.51,23.64,42,28.77,44.5,23.61,50.23,12,61.09,12,68,12,75.33,16.4,75.33,26c0,11.48-15.81,26.17-33.33,43.34C24.47,52.14,8.67,37.44,8.67,26,8.67,17.05,15.22,12,22.93,12Zm0-6.67C12.33,5.33,2,12.62,2,26,2,41.51,20.57,57.4,42,78.67,63.43,57.4,82,41.51,82,26,82,12.6,71.68,5.37,61.09,5.37A21.78,21.78,0,0,0,42,16.16,21.76,21.76,0,0,0,22.94,5.33Z"/></svg>