<svg id="Layer_1" data-name="Layer 1" xmlns="http://www.w3.org/2000/svg" viewBox="0 0 74 80"><defs><style>.cls-1{fill:#5938d9;}</style></defs><path class="cls-1" d="M64.88,31.05C63.59,16.61,54.06,3,37,3S10.41,16.61,9.12,31.05C3.55,31.54,1,36.81,1,42.94c0,5.26,2.93,11.9,9.31,14.67C19.12,73.72,32.91,75,37,75s17.88-1.28,26.69-17.39C70.07,54.84,73,48.2,73,42.94,73,36.88,70.48,31.54,64.88,31.05ZM60.6,52.38a3,3,0,0,0-1.71,1.47C51.68,67.91,40.31,69,37,69S22.32,67.91,15.11,53.85a3,3,0,0,0-1.71-1.47c-7.34-2.49-7.66-13.09-4.66-15a2.26,2.26,0,0,1,2-.16A3,3,0,0,0,15,34.44l.06-1.7c5.41-1.22,13-8.32,14.89-12.11-.2,2.55-2.67,9.76-6.22,12.18,8.24,0,18.75-7.52,23.05-14.48.26,6.24,6.34,12.05,12.1,12.93A31,31,0,0,1,59,34.44a3,3,0,0,0,4.22,2.74,2.25,2.25,0,0,1,2,.16C68.26,39.29,68,49.89,60.6,52.38ZM50.5,40.5c0,2.48-1.68,4.5-3.75,4.5S43,43,43,40.5,44.68,36,46.75,36,50.5,38,50.5,40.5ZM27.25,45c-2.07,0-3.75-2-3.75-4.5S25.18,36,27.25,36,31,38,31,40.5,29.32,45,27.25,45ZM28,54H46s-2.3,7.06-9,7.06C30.54,61.06,28,54,28,54Z"/></svg>