<svg id="Layer_1" data-name="Layer 1" xmlns="http://www.w3.org/2000/svg" viewBox="0 0 73.33 80"><defs><style>.cls-1{fill:#5938d9;}</style></defs><title>Artboard 32</title><path class="cls-1" d="M60,61.69H48.28V50H60ZM42.45,32.52H30.78V44.19H42.45Zm17.5,0H48.28V44.19H60ZM25,50H13.28V61.69H25Zm17.5,0H30.78V61.69H42.45ZM25,32.52H13.28V44.19H25ZM71.62,9.19V73.36h-70V9.19h8.75v2.92a5.83,5.83,0,0,0,11.66,0V9.19H51.2v2.92a5.84,5.84,0,0,0,11.67,0V9.19Zm-5.84,17.5H7.45V67.52H65.78ZM60,6.27a2.92,2.92,0,0,0-5.83,0v5.84a2.92,2.92,0,0,0,5.83,0ZM19.12,12.11a2.92,2.92,0,0,1-5.84,0V6.27a2.92,2.92,0,0,1,5.84,0Z"/></svg>